<?xml version="1.0" encoding="utf-8"?>
<!-- Generator: Adobe Illustrator 19.0.0, SVG Export Plug-In . SVG Version: 6.00 Build 0)  -->
<svg version="1.1" id="Layer_1" xmlns="http://www.w3.org/2000/svg" xmlns:xlink="http://www.w3.org/1999/xlink" x="0px" y="0px"
	 viewBox="-187 352.4 703.1 393.2" style="enable-background:new -187 352.4 703.1 393.2;" xml:space="preserve">
<style type="text/css">
	.st0{display:none;}
	.st1{fill:#F52C2F;}
	.st2{fill:#FFFFFF;}
</style>
<g id="Layer_2">
</g>
<rect id="XMLID_1_" x="-187" y="824.8" class="st0" width="1080" height="1080"/>
<g>
	<path d="M-124.3,710.1l-30.1-272.7c-1.7-14.8,9.1-28.3,24-29.9l272.7-30.1c14.8-1.7,28.3,9.1,29.9,24l30,272.7
		c1.7,14.8-9.1,28.3-24,29.9l-272.7,30.1C-109.2,735.6-122.7,724.9-124.3,710.1z"/>
	<g>
		<path class="st1" d="M-116.1,723.8c-15.4,0-28.3-11.5-30-26.8l-30.1-272.7c-1.8-16.5,10.1-31.4,26.6-33.3L123.2,361
			c1.1-0.1,2.2-0.2,3.4-0.2c15.3,0,28.2,11.5,29.9,26.8l30,272.7c1.8,16.5-10.1,31.4-26.6,33.3l-272.7,30.1
			C-113.9,723.8-115,723.8-116.1,723.8z"/>
		<path d="M126.6,363.8c13.6,0,25.3,10.3,26.9,24.1l30,272.7c1.7,14.8-9.1,28.3-24,29.9l-272.7,30.1c-1,0.1-1.9,0.2-2.9,0.2
			c-13.6,0-25.4-10.3-27-24.1L-173.2,424c-1.7-14.8,9.1-28.3,24-29.9L123.5,364C124.5,363.8,125.6,363.8,126.6,363.8 M126.6,357.8
			c-1.2,0-2.5,0.1-3.7,0.2l-272.7,30.1c-18.2,2.1-31.3,18.5-29.3,36.6l30.1,272.7c1.9,16.8,16.1,29.5,33,29.5c1.2,0,2.4-0.1,3.5-0.2
			l272.7-30.1c18.2-2.1,31.3-18.5,29.3-36.6l-30-272.7C157.5,370.5,143.4,357.8,126.6,357.8L126.6,357.8z"/>
	</g>
	<g>
		<path class="st1" d="M497,522.3c0.1,6-1.4,12.1-4.4,18.5c-8.9,10.8-17,20.9-24,30s-13.7,18-20.2,26.3h0.5l-17.2,23.7l6.1-1.3
			l9.2-1.3c3.2-0.5,6.7-1,10.2-1.4c3.3-0.5,7.2-0.8,11.3-1.4c6.1-0.1,10.7,2.7,13.4,8.4l14.5,13.8c2,2,3.3,4.4,4.2,7.3
			c0.9,3,1.4,6.2,1.4,9.7c0.1,4.3-0.6,9.1-2,14.5c-1.4,5.4-3.2,10.2-5.5,14.3c-14.5,0.2-28.5,0.8-41.7,1.6
			c-13.3,0.9-25.6,2-37.4,3.1c-11.8,1.2-23.9,2.2-36.5,3.1c-12.6,0.9-26.1,1.5-40.4,1.6c-4.5-0.6-8.3-2.3-11.3-5.2l-13.7-13.5
			c-4.2-1.8-7.2-4.8-9.2-8.8c-2.2-4.2-3.2-8.5-3.2-13.6c-0.1-4.2,0.5-8.1,1.8-12.1c1.2-3.2,2.8-6.6,5.1-9.9c0.5-0.7,1-1.4,1.6-2.3
			c6.6-8.3,12.6-15.8,18-22.7c5.4-6.9,10.6-13.4,15.6-19.7c5-6.2,9.8-12.3,14.9-18.2c5-6,10.2-12.2,15.5-18.8
			c-4.2-0.2-8.5-0.5-13.5-0.5c-5-0.2-10-0.2-15.2-0.1c-1.4,0-3-0.7-4.4-2.1l-15.2-14.4c-1.6-0.5-3.2-1.5-4.7-3.3
			c-0.5-0.5-0.7-0.9-1.2-1.5c-0.9-1.4-2-3.2-2.8-5.1c-1.2-2.5-2.1-5.5-2.7-8.8c-0.5-1.5-0.6-3.1-0.8-4.6c-0.2-1.6-0.3-3.2-0.5-5
			c-0.1-6.2,0.9-11.8,3.2-16.7c2.3-5,6-7.4,11.5-7.6h0.5c6.6,0.5,12.6,0.7,18.4,0.9c5.8,0.2,11.3,0.6,16.6,1c1.3,0,2.7,0.1,4.3,0.3
			c1.6,0.2,3.2,0.5,4.3,0.3c10,0.8,19.9,1.4,29.1,2c9.3,0.5,19,0.6,29.1,0.5c8.8-0.1,18.6-0.6,29.1-1.5c8-0.8,13.8,2.3,17.8,9.8
			l13.2,12.7c0-0.2-0.1-0.5-0.2-0.3c-0.1,0-0.2-0.1-0.2-0.3l1.2,1.2C494.7,509.1,496.9,514.9,497,522.3z"/>
		<path id="XMLID_27_" d="M490.5,505.2l-1.2-1.2c0,0.2,0.1,0.5,0.2,0.3c0.1,0,0.2,0.1,0.2,0.3l-13.2-12.7c-4-7.4-9.8-10.6-17.8-9.8
			c-10.5,0.9-20.3,1.4-29.1,1.5c-10,0.2-19.9,0-29.1-0.5c-9.2-0.5-19-1.2-29.1-2c-1.3,0-2.7-0.1-4.3-0.3c-1.6-0.2-3.2-0.5-4.3-0.3
			c-5.2-0.5-10.8-0.7-16.6-1c-5.8-0.3-11.9-0.6-18.4-0.9h-0.5c-5.5,0.1-9.3,2.7-11.5,7.6c-2.3,5-3.2,10.6-3.2,16.7
			c0,1.6,0.1,3.2,0.5,5c0.2,1.5,0.5,3.1,0.8,4.6c0.6,3.2,1.5,6.1,2.7,8.8c0.8,2,1.7,3.7,2.8,5.1c0.5,0.5,0.7,1,1.2,1.5
			c1.5,1.8,3.1,3,4.7,3.3l15.2,14.4c1.4,1.4,3,2.2,4.4,2.1c5.2-0.1,10.4-0.1,15.2,0.1c5,0.2,9.5,0.5,13.5,0.5
			c-5.4,6.6-10.6,12.8-15.5,18.8c-5,6-9.8,12-14.9,18.2c-5,6.2-10.2,12.7-15.6,19.7c-5.4,6.9-11.4,14.4-18,22.7
			c-0.6,0.8-1.2,1.4-1.6,2.3c-2.3,3.3-4.2,6.7-5.1,9.9c-1.3,4-2,8-1.8,12.1c0.1,5.1,1.2,9.6,3.2,13.6c2.2,4.2,5.2,6.9,9.2,8.8
			l13.8,13.4c3,2.8,6.7,4.5,11.3,5.2c14.4-0.2,27.8-0.8,40.4-1.6c12.6-0.8,24.7-2,36.5-3.1c11.7-1.3,24.1-2.3,37.4-3.1
			c13.2-0.9,27.1-1.5,41.7-1.6c2.3-4.2,4.2-8.8,5.5-14.3c1.4-5.4,2-10.3,2-14.5c-0.1-3.5-0.5-6.8-1.4-9.7c-0.9-3-2.3-5.4-4.2-7.3
			l-14.5-13.8c-2.7-5.8-7.3-8.5-13.4-8.4c-4.2,0.6-7.8,1-11.3,1.4c-3.5,0.3-6.9,0.9-10.2,1.4l-9.2,1.3l-6.1,1.3l17.2-23.7h-0.5
			c6.3-8.4,13-17.3,20.2-26.3c7-9.1,15.1-19,24-30c3.1-6.2,4.5-12.5,4.4-18.5C496.9,514.9,494.7,509.1,490.5,505.2z M472.4,508.1
			c-0.3,3.9-1.4,7.7-3.2,11.5c-8.9,10.8-16.9,20.9-23.7,29.9c-6.8,9-13.4,17.8-20,26.3c-6.6,8.5-13.2,17.3-19.9,26.3
			c-6.9,8.9-14.8,18.9-23.7,29.9c8.8-0.1,16.9-0.5,23.9-1.2s13.8-1.4,20.3-2.3s13.2-2,19.9-3c6.9-1.2,14.5-2.1,23.2-2.9
			c2.9-0.1,5.1,1.4,6.3,4.2c1.4,2.8,2.1,6.1,2.2,10c-0.1,4-0.5,8.1-1.4,12.2s-2.2,7.8-3.8,11c-14.4,0.2-27.7,0.8-39.9,1.6
			c-12.2,0.9-24.1,2-36,3.1c-11.7,1.3-23.7,2.2-36,3.1c-11.5,0.8-24.2,1.4-37.7,1.6c-0.7,0.1-1.4,0-2.1,0.1c-3.3-0.5-6.1-2-8.3-4.4
			c-2.3-2.5-3.6-5.5-4.3-9.1c-0.6-3.6-0.5-7.6,0.5-11.7c0.8-3.2,2.2-6.3,4.2-9.3c0.6-0.9,1.4-1.8,2-2.8
			c8.8-11.2,16.5-21.1,23.4-29.7s13.5-17,20.2-24.7c6.6-7.8,13.4-16,20.5-24.4c7-8.3,15.2-18,24.4-29c-7.8,0.6-15,0.8-21.2,0.7
			c-6.2-0.2-12.2-0.3-17.9-0.5c-5.7-0.1-11.5-0.5-17.4-0.5c-6-0.2-12.8-0.1-20.5-0.1c-1.4,0-2.8-2-4.2-5.9c-1.4-4-2.1-8.3-2.3-13.2
			c-0.3-4.8,0.1-9.1,1.3-13.2c1.2-4,3.2-6,6.3-6c13.3,0.5,25.2,1.3,35.8,2c10.6,0.8,21,1.5,30.9,2.1c9.9,0.5,20.2,0.9,30.6,0.8
			c10.4-0.1,22.2-0.5,35.1-1.4c2.7-0.5,5,0.1,6.9,1.7c2,1.6,3.3,3.9,4.5,6.8C472.3,500.8,472.8,504.3,472.4,508.1z"/>
	</g>
	<g>
		<path class="st2" d="M96.9,454.8c-2.5,4.5-6.6,8.1-12.2,10.6c-3.9,1.6-7.3,2.3-10.4,2.2c-3.1-0.2-5.9-1-8.4-2.5L52.2,457
			c-4-0.6-7.4-2.5-10.2-5.7c-2.8-3.1-4.5-6.6-5.7-10.6c-0.7-2.8-0.9-5.7-0.6-8.8c0.3-3,1.3-5.7,2.8-8.1c1.4-2.4,3.7-4.5,6.6-6.2
			c3-1.7,6.3-2.8,10.6-3.2c10-0.5,17.1,2.3,21.4,8.1l12.5,7.4c-0.1-0.2-0.1-0.3-0.2-0.2c-0.1,0-0.2-0.1-0.2-0.2l1.2,0.6
			c4.3,2.5,7,6.1,8.2,10.7C100,445.5,99.3,450.2,96.9,454.8z"/>
		<path class="st2" d="M162.9,635.9c0.3,2.9-1.6,5.7-6,8.2c-4.2,2.7-9.3,4.6-15.2,6.1c-6.1,1.5-12.3,2.4-18.9,2.7
			c-6.6,0.2-11.4-0.7-14.8-2.9l-15.2-9c-3.1-0.9-5.1-2.1-6.3-3.2c-0.5-1.4-0.6-2.9-0.9-4.4c-0.3-1.5-0.6-3.1-1-4.7l-4.3-17
			c-2.3-9.6-4.3-18.5-6.2-26.7c-2.1-8.3-4-16.6-6.1-24.8c-1.5-6.1-3.2-12.3-4.8-18.5c-1.3-4.7-2.5-9.5-3.8-14.1
			c-1.3-4.3-2.4-8.8-3.7-13.4c-2-6.9-4-14.3-6.2-21.9l-0.5-1.5c-0.2-4.2,2.1-7.8,6.9-10.8c4.8-3.1,10.3-5.4,16.3-6.9
			c6.1-1.5,11.9-2.2,17.7-1.7c5.7,0.5,9.1,2,10.6,4.8l15.6,9.2c1.3,0.7,2.2,1.5,2.5,2.5c4.2,14.5,8,27.8,11.5,39.8
			c3.5,11.9,7,23.4,10.6,34.5c3.1,10,6.2,20.2,9.6,30.8c0.5,1.2,0.8,2.3,1.2,3.6c2.3,7.4,4.7,15.5,7.2,24.1
			C159.9,625.1,161.3,630.4,162.9,635.9z"/>
		<path id="XMLID_19_" d="M158.3,620.4c-2.5-8.7-5-16.6-7.2-24.1c-0.5-1.3-0.7-2.3-1.2-3.6c-3.2-10.5-6.3-20.8-9.6-30.8
			c-3.5-11.2-6.9-22.6-10.6-34.5c-3.5-11.9-7.4-25.2-11.5-39.8c-0.5-0.9-1.4-1.8-2.5-2.5l-15.6-9.2c-1.4-2.9-5-4.5-10.6-4.8
			c-5.7-0.5-11.5,0.2-17.7,1.7s-11.5,3.8-16.3,6.9c-4.8,3.1-7,6.7-6.9,10.8l0.5,1.5c2.3,7.7,4.2,14.9,6.2,21.9
			c1.3,4.7,2.5,9.1,3.7,13.4c1.3,4.7,2.5,9.5,3.8,14.1c1.5,6.1,3.2,12.3,4.8,18.5c2.1,8.2,4.2,16.6,6.1,24.8
			c2.1,8.3,4.2,17.2,6.2,26.7l4.3,17c0.5,1.6,0.7,3.2,1,4.7c0.3,1.5,0.6,3.1,0.9,4.4c1.2,1.3,3.2,2.3,6.3,3.2l15.2,9
			c3.3,2.2,8.2,3.1,14.8,2.9c6.6-0.2,12.7-1.2,18.9-2.7c5.9-1.4,10.8-3.5,15.2-6.1c4.2-2.7,6.2-5.4,6-8.2
			C161.3,630.4,159.9,625.1,158.3,620.4z M132.5,630c-4.2,1.7-9,3.2-14.4,4.5c-5.5,1.3-10.7,2.1-15.9,2.3s-8.4-0.5-9.8-2.1
			c-3.3-14.2-6.6-27.1-9.5-39.1c-3-11.9-5.9-23.4-8.8-34.5c-2.9-11.2-5.8-22.5-8.8-33.7c-3-11.3-6.3-23.7-10.2-36.8
			c-0.2-2.3,1.7-4.5,5.5-6.6c3.9-2.1,8.1-3.7,12.9-4.8c4.7-1.3,9.2-1.8,13.4-2c4.2-0.1,6.7,0.5,7.2,2c4.2,14.5,8,27.7,11.5,39.4
			c3.6,11.5,7,23,10.5,34c3.3,11,6.9,22.4,10.5,34c3.6,11.7,7.5,24.7,11.5,39.4C138.8,626.7,136.7,628.2,132.5,630z M98.8,440.8
			c-1.2-4.6-3.9-8.2-8.2-10.7l-1.2-0.6c0.1,0.2,0.1,0.3,0.2,0.2c0.1,0,0.2,0.1,0.2,0.2l-12.5-7.4c-4.2-5.8-11.3-8.5-21.4-8.1
			c-4.2,0.5-7.7,1.4-10.6,3.2c-3,1.7-5.1,3.8-6.6,6.2c-1.5,2.4-2.4,5.1-2.8,8.1c-0.3,3-0.1,6,0.6,8.8c1,4,2.9,7.6,5.7,10.6
			c2.8,3,6.1,5,10.2,5.7l13.6,8.1c2.5,1.5,5.4,2.3,8.4,2.5c3.1,0.2,6.5-0.5,10.4-2.2c5.7-2.5,9.7-6,12.2-10.6
			C99.3,450.2,100,445.5,98.8,440.8z M72.6,441.7c-2,3.2-5,5.9-9,7.4c-5.7,2.3-10.3,2.3-13.8-0.5c-3.7-2.5-6-5.8-6.9-9.8
			c-1-4-0.5-7.8,1.5-11.9c2.1-3.8,6.1-6,12.2-6.5c5.8-0.5,10,0.6,13.2,3c3.1,2.3,4.8,5.1,5.4,8.4C75.3,435.2,74.5,438.4,72.6,441.7z
			"/>
	</g>
	<g>
		<path class="st2" d="M105.2,616.8c-5.2-4.4-9.7-8.3-13.8-12c-4.2-3.6-8-7.3-11.7-10.7c-6.1-5.5-12-10.8-17.8-15.9
			c-5.9-5.1-12.5-10.3-20.1-15.6c9.8-10.2,16.5-22.3,20.1-36.2c3.6-14,3.2-29.4-1.2-46.5c-2.8-10.8-6.6-19.9-11.5-27
			c-5-7.2-10.4-12.5-16.6-16.2l-10-5.7c-7.7-7.2-16.7-11.4-27.1-12.6c-10.4-1.3-21.7-0.2-33.8,2.8c-8.2,2.1-15.3,4.7-21.7,7.8
			c-6.2,3.1-12.5,6.5-18.6,10l-5.4,3l-3.3,2.1l-5-2.7c-0.1-0.5-0.1-0.7-0.1-0.9c0.1-0.2,0-0.5-0.1-0.9c-4.5,0.5-9.2,1.3-14.3,2.1
			c-5,0.9-9.3,1.7-13.2,2.8c-7.3,1.8-13,4.5-17.4,8c-4.4,3.5-5.9,7.4-4.3,11.5c2.1,9.8,4.2,18.8,6.1,26.9c2,8.1,4,16.2,6,24.2
			c3,11.7,5.9,22.6,8.8,33.2c2.9,10.6,5.9,21.1,9,31.9l1.3,4.8c3.1,10.4,6,21.2,9,32.5c3,11.3,6.2,23.7,9.9,37.3l0.2,0.6
			c1.6,4,4.7,6.3,9.1,7l14.1,8.3c2.2,1.3,4.7,2,7.6,1.8c3-0.1,6.2-0.5,9.8-1.4c4.6-1.3,9.8-3.1,15.8-5.9c6-2.7,11.1-5.5,15.6-8.5
			c-2.8-10.3-5.5-20.4-8.3-30.7c-2.7-10.2-5.4-19.6-8-28.3c1.4-0.3,2.3-0.6,3.2-0.8c0.8-0.2,1.6-0.5,2.3-0.5
			c0.7-0.1,1.4-0.2,2.2-0.5c0.8-0.2,1.8-0.5,3.1-0.8l15.8-4l0.5,0.5l5.4,5.7c4.7,4.8,9.6,10,14.8,15.6c5.1,5.5,10.7,10.5,16.7,14.8
			c1,0.9,2.8,1.6,5.1,2.1l14.3,8.5c2.9,1.6,7,2.3,12.7,2.1c5.5-0.3,11.5-1.3,17.5-2.8c4.6-1.3,8.8-2.7,12.6-4.4
			c3.8-1.7,6.9-3.7,9.6-5.7c2.5-2,4.2-3.9,5.2-5.9C106.6,620.2,106.3,618.4,105.2,616.8z M-6.4,515c-2.2,5.1-5.4,9.3-9.7,13
			c-4.2,3.6-9.1,6.6-14.5,8.9c-5.5,2.3-10.6,4.2-15.3,5.3l-5.8,1.4c-1.8-6-3.5-12.2-5.1-18.5c-1.6-6.2-3.3-12.7-5.1-19.4l-1.5-6
			c5.1-3.1,10.8-6.2,17.4-9.2c6.6-3.1,12.7-5.4,18.7-6.9c5-1.3,9.7-1.5,14.1-0.9c3.7,4.3,6.2,9.1,7.7,14.4
			C-4,504.1-4.2,510.1-6.4,515z"/>
		<g>
			<path d="M-0.1,495.7c-2.8-10.8-8.4-18.9-17.1-24.1c-8.5-5.2-18.5-6.3-29.7-3.5c-3.2,0.8-6.7,2-10.3,3.3c-3.6,1.4-7.2,3.1-10.7,5
				c-3.6,1.8-7,3.7-10.5,5.5c-3.3,1.8-6.3,3.6-9,5.1c2.9,12.1,5.9,23.3,8.9,33.8c3.1,10.5,6.1,21,9.2,31.6c8.8-1,17.1-2.5,24.5-4.4
				c5.3-1.4,11.1-3.2,17.2-6c6.1-2.5,11.5-6,16.3-10.3c4.7-4.2,8.2-9.2,10.6-15.2C1.8,510.8,1.9,503.7-0.1,495.7z M-6.4,515
				c-2.2,5.1-5.4,9.3-9.7,13c-4.2,3.6-9.1,6.6-14.5,8.9c-5.5,2.3-10.6,4.2-15.3,5.3l-5.8,1.4c-1.8-6-3.5-12.2-5.1-18.5
				c-1.6-6.2-3.3-12.7-5.1-19.4l-1.5-6c5.1-3.1,10.8-6.2,17.4-9.2c6.6-3.1,12.7-5.4,18.7-6.9c5-1.3,9.7-1.5,14.1-0.9
				c3.7,4.3,6.2,9.1,7.7,14.4C-4,504.1-4.2,510.1-6.4,515z M-0.1,495.7c-2.8-10.8-8.4-18.9-17.1-24.1c-8.5-5.2-18.5-6.3-29.7-3.5
				c-3.2,0.8-6.7,2-10.3,3.3c-3.6,1.4-7.2,3.1-10.7,5c-3.6,1.8-7,3.7-10.5,5.5c-3.3,1.8-6.3,3.6-9,5.1c2.9,12.1,5.9,23.3,8.9,33.8
				c3.1,10.5,6.1,21,9.2,31.6c8.8-1,17.1-2.5,24.5-4.4c5.3-1.4,11.1-3.2,17.2-6c6.1-2.5,11.5-6,16.3-10.3c4.7-4.2,8.2-9.2,10.6-15.2
				C1.8,510.8,1.9,503.7-0.1,495.7z M-6.4,515c-2.2,5.1-5.4,9.3-9.7,13c-4.2,3.6-9.1,6.6-14.5,8.9c-5.5,2.3-10.6,4.2-15.3,5.3
				l-5.8,1.4c-1.8-6-3.5-12.2-5.1-18.5c-1.6-6.2-3.3-12.7-5.1-19.4l-1.5-6c5.1-3.1,10.8-6.2,17.4-9.2c6.6-3.1,12.7-5.4,18.7-6.9
				c5-1.3,9.7-1.5,14.1-0.9c3.7,4.3,6.2,9.1,7.7,14.4C-4,504.1-4.2,510.1-6.4,515z M105.2,616.8c-5.2-4.4-9.7-8.3-13.8-12
				c-4.2-3.6-8-7.3-11.7-10.7c-6.1-5.5-12-10.8-17.8-15.9c-5.9-5.1-12.5-10.3-20.1-15.6c9.8-10.2,16.5-22.3,20.1-36.2
				c3.6-14,3.2-29.4-1.2-46.5c-2.8-10.8-6.6-19.9-11.5-27c-5-7.2-10.4-12.5-16.6-16.2l-10-5.7c-7.7-7.2-16.7-11.4-27.1-12.6
				c-10.4-1.3-21.7-0.2-33.8,2.8c-8.2,2.1-15.3,4.7-21.7,7.8c-6.2,3.1-12.5,6.5-18.6,10l-5.4,3l-3.3,2.1l-5-2.7
				c-0.1-0.5-0.1-0.7-0.1-0.9c0.1-0.2,0-0.5-0.1-0.9c-4.5,0.5-9.2,1.3-14.3,2.1c-5,0.9-9.3,1.7-13.2,2.8c-7.3,1.8-13,4.5-17.4,8
				c-4.4,3.5-5.9,7.4-4.3,11.5c2.1,9.8,4.2,18.8,6.1,26.9c2,8.1,4,16.2,6,24.2c3,11.7,5.9,22.6,8.8,33.2c2.9,10.6,5.9,21.1,9,31.9
				l1.3,4.8c3.1,10.4,6,21.2,9,32.5c3,11.3,6.2,23.7,9.9,37.3l0.2,0.6c1.6,4,4.7,6.3,9.1,7l14.1,8.3c2.2,1.3,4.7,2,7.6,1.8
				c3-0.1,6.2-0.5,9.8-1.4c4.6-1.3,9.8-3.1,15.8-5.9c6-2.7,11.1-5.5,15.6-8.5c-2.8-10.3-5.5-20.4-8.3-30.7
				c-2.7-10.2-5.4-19.6-8-28.3c1.4-0.3,2.3-0.6,3.2-0.8c0.8-0.2,1.6-0.5,2.3-0.5c0.7-0.1,1.4-0.2,2.2-0.5c0.8-0.2,1.8-0.5,3.1-0.8
				l15.8-4l0.5,0.5l5.4,5.7c4.7,4.8,9.6,10,14.8,15.6c5.1,5.5,10.7,10.5,16.7,14.8c1,0.9,2.8,1.6,5.1,2.1l14.3,8.5
				c2.9,1.6,7,2.3,12.7,2.1c5.5-0.3,11.5-1.3,17.5-2.8c4.6-1.3,8.8-2.7,12.6-4.4c3.8-1.7,6.9-3.7,9.6-5.7c2.5-2,4.2-3.9,5.2-5.9
				C106.6,620.2,106.3,618.4,105.2,616.8z M82.4,613.2c-1.8,1.4-4.4,2.5-7.7,4c-3.2,1.4-7,2.7-11.5,4c-4.5,1.4-8.5,2.3-12.6,3.1
				c-4.2,0.7-7.8,1.2-11.3,1.2s-5.9-0.6-7-1.6c-5.4-4.3-10.5-8.9-15.3-13.7c-5-4.8-9.5-9.6-13.7-14c-4.3-4.5-8.3-8.8-11.9-12.7
				c-3.7-4-6.8-7.2-9.6-9.7c-1.8,0.6-3.7,1.3-5.5,1.7c-1.8,0.5-3.7,0.9-5.5,1.4c-5,1.3-9.8,2.5-14.8,3.6c-5,1.2-10.2,2.3-15.6,3.8
				c2.8,9,5.4,18.5,8.1,28.3c2.8,9.8,5.7,20.5,8.8,31.9c-3.3,2.1-7.3,4.2-11.8,6.2c-4.5,2.1-8.9,3.8-13.2,5.1
				c-4.2,1.3-8.1,1.8-11.5,1.7c-3.3-0.1-5.4-1.4-6.2-3.6c-5.1-19-9.7-36-14.1-51.1c-4.4-15.1-8.4-29.9-12.3-44.2
				c-4-14.3-7.8-29.1-11.8-44.3c-3.9-15.2-8-32.4-12.3-51.7c-1.2-2-0.5-3.8,1.8-5.3c2.3-1.5,5.5-3.1,9.6-4.4
				c4.2-1.4,8.5-2.5,13.6-3.7s9.7-1.8,14.2-2.3c0.2,1.5,0.5,3,0.8,4.4c0.3,1.4,0.6,2.8,1.2,4.2c5.5-2.8,10.6-5.5,15.2-8.3
				c4.6-2.7,9-5.2,13.4-7.7c4.3-2.4,8.9-4.7,13.7-6.7c4.7-2.1,10-3.8,15.7-5.2c8.8-2.3,17.1-3.2,24.9-3.1c7.8,0.2,15.1,2.1,21.5,5.3
				c6.5,3.3,12,8.3,17,15.1c4.8,6.7,8.7,15.3,11.3,26c4.4,17.3,4.5,32.9,0.2,46.9c-4.2,13.8-11.5,25.6-22.2,35.4
				c6.9,4.7,13,9.2,18.4,13.6c5.4,4.3,10.6,8.8,15.3,13.3c5,4.5,10,9.2,15.5,14.2s11.5,10.4,18.7,16.3
				C84.8,610.9,84.3,612,82.4,613.2z M-17,471.5c-8.5-5.2-18.5-6.3-29.7-3.5c-3.2,0.8-6.7,2-10.3,3.3c-3.6,1.4-7.2,3.1-10.7,5
				c-3.6,1.8-7,3.7-10.5,5.5c-3.3,1.8-6.3,3.6-9,5.1c2.9,12.1,5.9,23.3,8.9,33.8c3.1,10.5,6.1,21,9.2,31.6c8.8-1,17.1-2.5,24.5-4.4
				c5.3-1.4,11.1-3.2,17.2-6c6.1-2.5,11.5-6,16.3-10.3c4.7-4.2,8.2-9.2,10.6-15.2c2.3-6,2.5-12.8,0.5-20.8
				C-2.8,484.9-8.5,476.9-17,471.5z M-6.4,515c-2.2,5.1-5.4,9.3-9.7,13c-4.2,3.6-9.1,6.6-14.5,8.9c-5.5,2.3-10.6,4.2-15.3,5.3
				l-5.8,1.4c-1.8-6-3.5-12.2-5.1-18.5c-1.6-6.2-3.3-12.7-5.1-19.4l-1.5-6c5.1-3.1,10.8-6.2,17.4-9.2c6.6-3.1,12.7-5.4,18.7-6.9
				c5-1.3,9.7-1.5,14.1-0.9c3.7,4.3,6.2,9.1,7.7,14.4C-4,504.1-4.2,510.1-6.4,515z M-0.1,495.7c-2.8-10.8-8.4-18.9-17.1-24.1
				c-8.5-5.2-18.5-6.3-29.7-3.5c-3.2,0.8-6.7,2-10.3,3.3c-3.6,1.4-7.2,3.1-10.7,5c-3.6,1.8-7,3.7-10.5,5.5c-3.3,1.8-6.3,3.6-9,5.1
				c2.9,12.1,5.9,23.3,8.9,33.8c3.1,10.5,6.1,21,9.2,31.6c8.8-1,17.1-2.5,24.5-4.4c5.3-1.4,11.1-3.2,17.2-6
				c6.1-2.5,11.5-6,16.3-10.3c4.7-4.2,8.2-9.2,10.6-15.2C1.8,510.8,1.9,503.7-0.1,495.7z M-6.4,515c-2.2,5.1-5.4,9.3-9.7,13
				c-4.2,3.6-9.1,6.6-14.5,8.9c-5.5,2.3-10.6,4.2-15.3,5.3l-5.8,1.4c-1.8-6-3.5-12.2-5.1-18.5c-1.6-6.2-3.3-12.7-5.1-19.4l-1.5-6
				c5.1-3.1,10.8-6.2,17.4-9.2c6.6-3.1,12.7-5.4,18.7-6.9c5-1.3,9.7-1.5,14.1-0.9c3.7,4.3,6.2,9.1,7.7,14.4
				C-4,504.1-4.2,510.1-6.4,515z M-0.1,495.7c-2.8-10.8-8.4-18.9-17.1-24.1c-8.5-5.2-18.5-6.3-29.7-3.5c-3.2,0.8-6.7,2-10.3,3.3
				c-3.6,1.4-7.2,3.1-10.7,5c-3.6,1.8-7,3.7-10.5,5.5c-3.3,1.8-6.3,3.6-9,5.1c2.9,12.1,5.9,23.3,8.9,33.8c3.1,10.5,6.1,21,9.2,31.6
				c8.8-1,17.1-2.5,24.5-4.4c5.3-1.4,11.1-3.2,17.2-6c6.1-2.5,11.5-6,16.3-10.3c4.7-4.2,8.2-9.2,10.6-15.2
				C1.8,510.8,1.9,503.7-0.1,495.7z M-6.4,515c-2.2,5.1-5.4,9.3-9.7,13c-4.2,3.6-9.1,6.6-14.5,8.9c-5.5,2.3-10.6,4.2-15.3,5.3
				l-5.8,1.4c-1.8-6-3.5-12.2-5.1-18.5c-1.6-6.2-3.3-12.7-5.1-19.4l-1.5-6c5.1-3.1,10.8-6.2,17.4-9.2c6.6-3.1,12.7-5.4,18.7-6.9
				c5-1.3,9.7-1.5,14.1-0.9c3.7,4.3,6.2,9.1,7.7,14.4C-4,504.1-4.2,510.1-6.4,515z"/>
		</g>
	</g>
	<g>
		<path class="st1" d="M335.4,479c0,0.6,0,1.3,0,2c0,6.9-1.7,13.8-4.8,21.1c-10.7,13.8-20.4,26.5-28.9,38.1
			c-8.5,11.5-16.6,22.6-24.2,33.5h0.5l-20.8,30l7.6-1.6l11.5-1.8c4.2-0.8,8.4-1.4,12.7-2.1c4.2-0.6,8.9-1.4,14-2.2
			c7.7-0.3,13.4,3,17,10l4.7,4.3l6.6,5.9l7.3,6.6c2.5,2.3,4.3,5.3,5.5,9c1.3,3.7,2,7.7,2.1,12.2c0.2,4.4-0.3,9.5-1.3,14.8
			c-0.2,1.2-0.5,2.3-0.6,3.3c-0.9,3.8-2,7.3-3.2,10.6c-1,2.5-2.2,5-3.2,7.3c-18.1,0.7-35.4,2-51.8,3.5c-16.4,1.5-31.9,3.2-46.4,5.1
			c-14.5,1.8-29.8,3.5-45.2,5c-15.6,1.5-32.3,2.7-50.2,3.3c-5.8-0.6-10.4-2.8-14.2-6.1l-17.7-16.3c-3.6-1.5-6.6-3.7-9-6.6
			c-1-1.3-2.1-2.7-2.8-4.2c-2.8-5-4.2-10.6-4.5-16.9c-0.2-5,0.5-10,1.8-15.1c0.5-1.8,1.2-3.5,2-5.2c1.5-3.2,3.5-6.7,6.1-10
			c8-10.5,15.2-20,21.7-28.9c6.6-8.8,12.7-17.1,18.7-24.9c6-7.8,11.9-15.6,17.9-23.1c6-7.6,12.2-15.5,18.8-23.8
			c-5.1-0.1-10.6-0.2-16.7-0.2c-6.1-0.1-12.5,0.1-19,0.3c-1.8,0.1-3.6-0.7-5.5-2.5l-19.5-17.5c-2.2-0.5-4.2-1.8-6-4
			c-2-2.3-3.6-4.8-5.1-8.1c-1.4-3.2-2.7-6.8-3.6-10.7c-0.9-3.9-1.4-7.8-1.5-11.8c-0.3-7.8,0.8-14.7,3.3-20.9
			c2.7-6.1,7.3-9.5,14.2-9.7h0.5c8.1,0.2,15.7,0.5,22.9,0.6c7.2,0.2,14.1,0.5,20.7,0.7c1.5-0.1,3.2,0,5.4,0.2
			c2.1,0.2,3.9,0.3,5.4,0.2c12.6,0.6,24.7,1.2,36.4,1.4c11.5,0.2,23.8,0.2,36.2-0.5c11-0.5,23.1-1.4,36.2-2.8
			c9.8-1.3,17.2,2.5,22.5,11.5l16.9,15.5c0-0.3-0.1-0.5-0.2-0.5c-0.1,0-0.2-0.1-0.2-0.5l1.4,1.3c0.1,0.1,0.2,0.2,0.3,0.3
			C332.3,463.1,335.1,470,335.4,479z"/>
		<path id="XMLID_24_" d="M327.2,458.2c-0.1-0.1-0.2-0.2-0.3-0.3l-1.4-1.3c0,0.3,0.1,0.5,0.2,0.5s0.2,0.1,0.2,0.5l-16.7-15.5
			c-5.2-9.1-12.6-12.9-22.5-11.5c-13,1.4-25.3,2.3-36.2,2.8c-12.5,0.5-24.6,0.6-36.2,0.5c-11.7-0.1-23.8-0.7-36.4-1.4
			c-1.5,0.1-3.2,0-5.4-0.2c-2.2-0.2-3.9-0.3-5.4-0.2c-6.6-0.3-13.4-0.5-20.7-0.7c-7.2-0.1-14.8-0.5-22.9-0.6h-0.5
			c-6.9,0.3-11.5,3.5-14.2,9.7c-2.5,6.2-3.7,13.2-3.3,20.9c0.2,3.9,0.6,7.8,1.5,11.8c0.9,4,2.2,7.6,3.6,10.7c1.4,3.2,3.2,6,5.1,8.1
			c2,2.3,3.9,3.5,6,4l19.5,17.5c2,1.7,3.7,2.5,5.5,2.5c6.6-0.2,12.9-0.5,19-0.3c6.1,0.1,11.7,0.1,16.7,0.2
			c-6.6,8.4-12.7,16.3-18.8,23.8c-6,7.6-11.9,15.2-17.9,23.1c-6,7.8-12.2,16.2-18.7,24.9c-6.6,8.8-13.7,18.5-21.7,28.9
			c-2.5,3.3-4.5,6.8-6.1,10c-0.8,1.8-1.5,3.5-2,5.2c-1.4,5-2.1,10-1.8,15.1c0.2,6.2,1.8,11.9,4.5,16.9c0.8,1.4,1.8,2.9,2.8,4.2
			c2.4,3,5.4,5.1,9,6.6l17.7,16.3c3.7,3.3,8.4,5.5,14.2,6.1c17.9-0.7,34.5-2,50.2-3.3c15.7-1.4,30.7-3.2,45.2-5
			c14.4-1.8,30-3.5,46.4-5.1c16.3-1.5,33.6-2.8,51.8-3.5c1.2-2.3,2.3-4.7,3.2-7.3c1.3-3.2,2.3-6.9,3.2-10.6c0.2-1.2,0.5-2.3,0.6-3.3
			c0.9-5.4,1.4-10.5,1.3-14.8c-0.2-4.4-0.8-8.4-2.1-12.2c-1.3-3.7-3.1-6.7-5.5-9l-7.3-6.6l-6.6-5.9l-4.7-4.3
			c-3.6-6.9-9.2-10.3-17-10c-5.1,0.8-9.7,1.5-14,2.2c-4.3,0.6-8.5,1.4-12.7,2.1l-11.5,1.8l-7.6,1.6l20.8-30h-0.5
			c7.6-10.7,15.7-21.9,24.2-33.5s18-24.2,28.9-38.1c3.2-7.3,4.8-14.3,4.8-21.1c0-0.6,0-1.3,0-2C335.1,470,332.3,463.1,327.2,458.2z
			 M304.5,461.9c-0.2,4.8-1.4,9.7-3.7,14.4c-10.7,13.8-20.2,26.5-28.4,37.9c-8.2,11.3-16.2,22.5-24,33.5c-7.8,10.8-15.8,22-24,33.5
			c-8.2,11.3-17.7,24-28.4,37.9c11-0.5,20.9-1.2,29.7-2.2c8.8-1,17.1-2.2,25.3-3.5c8-1.4,16.2-2.9,24.7-4.4c8.5-1.5,18-3,28.7-4.3
			c3.6-0.1,6.2,1.4,8,4.8c1.7,3.3,2.8,7.5,3,12.5c0.1,5-0.5,10-1.3,15.2c-0.9,5.3-2.4,9.8-4.4,13.8c-17.9,0.7-34.4,1.8-49.5,3.3
			c-15.2,1.5-30,3.2-44.5,5c-14.4,1.8-29.4,3.5-44.5,5c-15.2,1.5-31.6,2.7-49.5,3.3c-4.2-0.5-7.7-2.2-10.6-5.2
			c-2.8-3.1-4.7-6.8-5.7-11.2c-0.9-4.4-0.8-9.3,0.3-14.5c1.2-5.3,3.5-10.3,7.3-15.2c10.5-14.2,19.9-26.8,28-37.6
			s16.3-21.4,24.2-31.4c7.8-10,16.2-20.4,24.7-30.9c8.5-10.6,18.2-23,29.3-36.7c-9.7,0.9-18.7,1.5-26.3,1.5c-7.7,0-15.2,0-22.3,0
			c-7,0-14.3,0-21.7,0c-7.5,0-16,0.2-25.5,0.6c-1.8,0.1-3.5-2.3-5.2-7.2c-1.7-4.8-2.8-10.3-3.3-16.2c-0.5-6-0.2-11.4,1.2-16.4
			c1.3-5,3.9-7.6,7.8-7.7c16.4,0.2,31.3,0.6,44.7,1.4c13.4,0.6,26.2,1.2,38.7,1.5c12.5,0.5,25.2,0.5,38.1,0
			c12.9-0.5,27.5-1.4,43.5-3c3.2-0.7,6.1-0.1,8.7,2c2.5,2.1,4.4,4.7,5.8,8.3C304.2,452.9,304.7,457.3,304.5,461.9z"/>
	</g>
</g>
</svg>
